<svg xmlns="http://www.w3.org/2000/svg" viewBox="1 1 716 362" width="718" height="364">
<path fill="#1F5561" fill-rule="evenodd" d="M1.000000,36.000000 C1.000000,26.979103 1.000000,17.958208 1.347820,8.432004 C4.130426,5.617797 6.565213,3.308898 9.000000,1.000000 C53.687561,1.000000 98.375122,1.000000 143.481506,1.349952 C150.617722,6.257915 153.039795,12.611094 152.051407,20.558550 C151.725052,23.182644 152.002945,25.881485 151.999008,28.546144 C151.985901,37.407623 147.555496,42.733273 138.856216,44.014156 C134.952103,44.588997 133.236115,46.526936 134.148682,50.385880 C135.069717,54.280678 138.384567,52.941479 140.768677,52.943478 C220.875046,53.010597 300.981506,53.000092 381.087921,52.999855 C447.371429,52.999657 513.654907,53.003136 579.938416,52.979401 C582.660034,52.978428 585.747009,53.697502 586.039001,49.194744 C586.323975,44.800514 583.297913,44.954033 580.483215,43.880459 C577.117126,42.596619 573.730774,40.759140 571.069946,38.364891 C566.210144,33.991932 568.423767,27.822784 567.997620,22.343431 C567.368835,14.260172 567.920593,6.649034 575.955566,1.933773 C576.102417,1.847579 575.990967,1.321069 576.000000,1.000000 C620.687561,1.000000 665.375122,1.000000 710.480896,1.349421 C713.599426,3.799228 716.299683,5.899613 719.000000,7.999999 C719.000000,17.020895 719.000000,26.041792 718.654785,35.584709 C714.867676,38.722893 711.785828,42.453918 707.903992,43.707428 C701.218750,45.866165 701.001587,45.218807 701.001404,52.272465 C700.999451,140.320908 701.000122,228.369339 701.000793,316.417786 C701.000793,317.582855 701.096436,318.755280 700.998352,319.911591 C700.746155,322.882965 701.968384,324.127808 705.020264,324.026001 C709.675293,323.870758 714.339600,323.994629 719.000000,324.000000 C719.000000,337.659180 719.000000,351.318390 719.000000,364.957764 C479.666656,364.957764 240.333328,364.957764 1.000000,364.957764 C1.000000,351.589447 1.000000,338.263367 1.467979,324.468658 C5.267602,323.999817 8.599256,324.004517 11.930889,323.998505 C18.982840,323.985779 18.997002,323.983459 18.997272,316.960754 C19.000671,228.839096 19.016512,140.717422 18.968487,52.595787 C18.964556,45.383308 20.565559,45.455822 11.861554,43.772762 C9.227121,43.263348 6.937074,40.808968 4.573804,39.126732 C3.290755,38.213425 2.185469,37.050392 1.000000,36.000000 M303.999878,258.595306 C303.674011,255.139709 303.245178,251.690262 303.039124,248.227524 C301.770020,226.901016 292.018158,209.365677 278.229340,193.849930 C268.198120,182.562378 255.977417,174.570618 241.382309,169.768951 C227.270279,165.126236 213.462692,164.359863 199.357986,168.825531 C182.044342,174.307175 167.742401,183.949509 156.125824,198.156723 C142.414398,214.925980 134.856430,233.906219 134.147125,255.301117 C133.468567,275.769012 133.989044,296.277069 134.009186,316.767456 C134.015656,323.345367 134.643448,323.988647 141.147385,323.990326 C193.123016,324.003632 245.098648,324.004517 297.074280,323.988281 C303.267334,323.986359 303.979767,323.262543 303.988251,317.045563 C304.014404,297.887909 303.999146,278.730194 303.999878,258.595306 M416.000000,295.500000 C416.000458,302.496338 415.985260,309.492737 416.005798,316.489014 C416.026276,323.463898 416.520172,323.990509 423.368195,323.992004 C475.175201,324.003326 526.982239,324.003693 578.789246,323.990875 C585.332825,323.989258 585.983887,323.338501 585.990173,316.831299 C586.010559,295.841949 586.440430,274.838684 585.780518,253.870102 C585.514771,245.427826 583.863586,236.697830 581.052612,228.730408 C573.287537,206.721283 559.877563,188.706512 539.312317,176.986038 C525.998291,169.398209 511.789307,164.337448 495.962433,165.979523 C478.739471,167.766418 463.216309,174.023819 450.354675,185.387665 C428.070984,205.076385 415.857452,229.797363 415.991699,260.017548 C416.042786,271.511505 416.000000,283.005829 416.000000,295.500000 M91.000000,247.500000 C91.000000,200.003403 91.000389,152.506790 90.999802,105.010193 C90.999580,87.178131 90.912163,69.345398 91.053261,51.514465 C91.090134,46.855648 89.416565,44.726357 84.626808,44.960278 C80.304169,45.171391 75.962944,44.996357 71.629929,45.001572 C63.112984,45.011818 63.002247,45.116215 63.001976,53.754761 C62.999268,140.915222 63.000290,228.075684 63.000702,315.236145 C63.000710,316.236053 63.052261,317.238312 63.001621,318.235504 C62.800613,322.193756 64.572556,324.092773 68.621590,324.013397 C73.785828,323.912170 78.953850,324.023590 84.119888,323.989685 C90.277634,323.949310 90.982483,323.256805 90.988792,316.995117 C91.011803,294.163422 90.999184,271.331696 91.000000,247.500000 M641.533691,45.000000 C628.223694,44.929214 628.985229,44.129974 628.988647,57.351109 C629.010864,142.681366 628.999939,228.011627 629.000854,313.341888 C629.000854,315.175110 629.035522,317.008636 629.014221,318.841522 C628.973206,322.372559 630.726440,324.016754 634.227356,323.991638 C638.893555,323.958191 643.560242,324.001526 648.226685,323.998016 C656.883240,323.991486 656.997498,323.887268 656.997803,315.388092 C657.000854,228.057907 656.999634,140.727722 656.998474,53.397530 C656.998413,52.230965 656.984070,51.064396 656.975159,49.897835 C656.950073,46.614349 655.262207,45.025291 652.012024,45.021141 C648.845520,45.017094 645.679016,45.007278 641.533691,45.000000 M374.350952,122.000336 C393.592590,123.213470 409.026184,132.635101 423.070160,144.941635 C425.653442,143.251266 428.003998,141.725342 430.342407,140.181015 C442.460541,132.178040 455.378265,126.097267 469.892151,123.979042 C475.737946,123.125885 476.972168,121.918106 476.996063,116.196640 C477.010681,112.698364 477.003387,109.199974 476.998932,105.701653 C476.987976,97.113319 476.887268,97.002548 468.323242,97.002151 C397.523682,96.998848 326.724121,97.007393 255.924545,96.993774 C241.973297,96.991089 242.970047,95.983849 242.995605,109.949821 C243.016937,121.610237 243.000595,121.607323 254.332809,124.267845 C254.810867,124.380089 255.256317,124.635918 255.712952,124.834038 C265.826019,129.221954 276.016113,133.444000 286.012665,138.083054 C289.972290,139.920578 293.501648,142.685196 297.202972,145.012634 C298.188812,144.148590 298.809875,143.602371 299.432922,143.058426 C314.469055,129.931213 331.248291,121.226891 351.897675,121.959587 C359.051910,122.213440 366.222748,122.000076 374.350952,122.000336 M389.450714,178.182541 C384.274780,174.980469 379.357544,171.192322 373.842743,168.757980 C369.260406,166.735245 363.807434,164.897751 359.036652,165.466293 C349.528900,166.599350 340.710083,170.386124 332.853302,176.327530 C329.965454,178.511337 329.923248,180.090317 331.364075,182.861359 C333.118317,186.235138 334.591949,189.760788 336.078644,193.266663 C342.319366,207.983047 346.931763,223.113983 346.979614,239.277832 C347.056580,265.270172 346.987518,291.262878 347.014130,317.255432 C347.020172,323.179504 347.800415,323.929657 353.638031,323.988678 C357.636444,324.029144 361.635742,324.014252 365.634460,323.994537 C372.480133,323.960815 372.989227,323.463165 372.993042,316.483429 C373.007355,290.324249 372.961487,264.164978 373.016846,238.005936 C373.042725,225.776733 376.190918,214.107452 380.188751,202.702560 C383.020691,194.623611 386.551422,186.789612 389.450714,178.182541 M197.992996,121.253448 C198.327255,115.348755 198.603439,109.440025 199.014328,103.540672 C199.336975,98.908180 197.467972,96.905060 192.662857,96.946266 C175.179733,97.096207 157.694061,97.076431 140.210480,96.957253 C135.748016,96.926834 133.915131,98.668610 133.957214,103.166779 C134.091217,117.486092 133.999603,131.807434 134.030075,146.127914 C134.032394,147.221802 134.308350,148.315094 134.576187,150.283844 C138.391190,147.811218 141.750137,145.845734 144.880539,143.566391 C155.092621,136.130692 165.811371,129.696625 178.151169,126.447685 C184.511688,124.773026 190.933380,123.330688 197.992996,121.253448 M585.997192,103.803680 C586.255737,99.807678 585.361389,96.953201 580.431396,96.977646 C562.455688,97.066795 544.479187,97.037834 526.503174,96.993706 C522.786560,96.984581 520.950256,98.580994 521.000122,102.371109 C521.061462,107.030716 521.216309,111.704086 520.943481,116.348778 C520.682251,120.797112 522.696655,122.274544 526.865173,123.125641 C534.257935,124.635033 541.514709,126.848854 548.779175,128.938965 C559.155212,131.924332 567.577148,138.398453 576.215332,144.500641 C579.044861,146.499481 582.179871,148.065979 585.999084,150.315521 C585.999084,134.334930 585.999084,119.539612 585.997192,103.803680 z"/>
</svg>